#!OML:ASF H:\Terrain\Patient Classification 1\Walking\liu\liu.ASF
:FULLY-SPECIFIED
:DEGREES
372
root 13.993860 25.601849 24.131699 9.323219 6.112650 -4.265205
lowerback -8.630865 0.340590 -0.154022
upperback -1.075515 0.355758 4.133370
thorax 3.713925 0.160462 4.377045
lowerneck -29.775150 -9.349050 -18.799049
upperneck 32.028152 -12.070801 18.719099
head 16.900200 -4.849950 8.115855
rclavicle 0.000000 -0.000000
rhumerus -50.213699 27.272549 -126.019653
rradius 66.503998
rwrist -34.431900
rhand -46.907551 -35.246552
rfingers 10.687531
rthumb -6.818250 -80.143356
lclavicle 0.000000 -0.000000
lhumerus -69.991951 -27.341099 146.931900
lradius 42.656998
lwrist 19.182600
lhand -22.749001 -34.175098
lfingers 10.687531
lthumb 16.507050 10.362270
rfemur -19.968300 8.821380 43.291801
rtibia 44.071648
rfoot -28.628700 4.587375
rtoes -23.187450
lfemur -52.381050 8.280405 -27.168600
ltibia 84.738899
lfoot -22.645950 18.036600
ltoes -4.418430
373
root 14.003296 25.606651 24.316801 9.306870 5.583060 -4.686660
lowerback -8.650275 0.636268 0.270621
upperback -1.019341 0.720292 4.182525
thorax 3.767025 0.345542 4.217415
lowerneck -29.979149 -9.369555 -18.683849
upperneck 32.235001 -12.152101 18.785999
head 17.027399 -4.861335 8.113950
rclavicle -0.000000 0.000000
rhumerus -49.418098 27.478348 -125.956947
rradius 66.556946
rwrist -34.878151
rhand -46.936199 -35.684250
rfingers 10.687531
rthumb -6.845865 -80.580605
lclavicle -0.000000 0.000000
lhumerus -70.301849 -26.681700 146.398499
lradius 42.384003
lwrist 18.291300
lhand -21.940500 -33.555149
lfingers 10.687531
lthumb 17.286751 10.939590
rfemur -18.817949 9.249825 43.774200
rtibia 43.126499
rfoot -28.858801 4.737330
rtoes -21.227699
lfemur -53.572647 8.245951 -26.832150
ltibia 82.741203
lfoot -22.392000 17.723101
ltoes -4.860675
374
root 14.010241 25.618050 24.502951 9.238200 4.891830 -4.839045
lowerback -8.412135 1.024036 0.389809
upperback -1.109988 1.236315 4.200525
thorax 3.517215 0.606297 4.203405
lowerneck -30.056700 -9.373199 -18.630150
upperneck 32.697899 -12.151694 18.567299
head 17.202000 -4.877445 8.036386
rclavicle 0.000000 0.000000
rhumerus -49.068752 27.050251 -125.752792
rradius 66.764252
rwrist -34.758301
rhand -46.689751 -36.146549
rfingers 10.687531
rthumb -6.607860 -81.047852
lclavicle 0.000000 0.000000
lhumerus -70.883545 -26.070150 146.177246
lradius 42.082649
lwrist 18.327751
lhand -21.179100 -33.524399
lfingers 10.687531
lthumb 18.021000 10.928295
rfemur -17.480249 9.637260 44.021549
rtibia 41.952599
rfoot -29.268600 4.679835
rtoes -23.616001
lfemur -54.549004 8.314830 -26.916601
ltibia 80.617645
lfoot -22.035450 18.054150
ltoes -8.495325
375
root 14.020411 25.640699 24.693600 9.092655 4.252980 -4.620600
lowerback -8.530200 1.216924 0.054270
upperback -0.973233 1.508295 4.212615
thorax 3.705525 0.736685 4.429815
lowerneck -29.961750 -9.291675 -18.702000
upperneck 32.895752 -12.014656 18.469950
head 17.235451 -4.835715 8.042894
rclavicle -0.000000 -0.000000
rhumerus -48.544647 26.958302 -125.554352
rradius 67.052849
rwrist -34.425449
rhand -46.808548 -36.505199
rfingers 10.687531
rthumb -6.722700 -81.404099
lclavicle -0.000000 -0.000000
lhumerus -71.135849 -24.869999 145.540207
lradius 41.692352
lwrist 17.396851
lhand -20.618401 -33.662998
lfingers 10.687531
lthumb 18.561600 10.757700
rfemur -15.918600 9.409410 43.846951
rtibia 40.682400
rfoot -29.346298 4.980660
rtoes -25.227451
lfemur -55.300354 8.110305 -27.305700
ltibia 78.340950
lfoot -22.326300 17.749350
ltoes -9.958800
376
root 14.035380 25.656300 24.875999 8.962440 3.864345 -4.961865
lowerback -8.595585 1.317549 0.366789
upperback -0.835199 1.615185 4.317735
thorax 3.882885 0.790491 4.374330
lowerneck -29.768101 -9.159000 -18.875099
upperneck 32.846703 -11.891160 18.849899
head 17.188049 -4.757310 8.241899
rclavicle -0.000000 0.000000
rhumerus -47.753548 27.231152 -125.522255
rradius 66.993904
rwrist -34.292850
rhand -47.033550 -36.581699
rfingers 10.687531
rthumb -6.939885 -81.475952
lclavicle -0.000000 0.000000
lhumerus -71.204254 -23.706749 144.712341
lradius 41.232899
lwrist 16.265699
lhand -20.145151 -33.883797
lfingers 10.687531
lthumb 19.017900 10.508910
rfemur -14.438654 9.108345 44.247452
rtibia 39.427200
rfoot -29.248199 5.506380
rtoes -20.445900
lfemur -56.194946 7.791915 -26.889000
ltibia 75.974701
lfoot -22.764601 16.638901
ltoes -9.029130
377
root 14.050110 25.668900 25.051649 9.010830 3.600780 -5.260830
lowerback -8.593920 1.522320 0.746643
upperback -0.725686 1.859835 4.363785
thorax 3.990165 0.915107 4.228830
lowerneck -29.857651 -9.138045 -18.996901
upperneck 32.740650 -11.838195 18.992701
head 17.170500 -4.724145 8.323185
rclavicle 0.000000 0.000000
rhumerus -46.726051 27.456001 -125.352448
rradius 66.734695
rwrist -34.594353
rhand -47.365051 -37.022247
rfingers 10.687531
rthumb -7.260045 -81.909302
lclavicle 0.000000 0.000000
lhumerus -71.266953 -23.218050 144.456741
lradius 40.912800
lwrist 16.587601
lhand -20.137199 -34.225197
lfingers 10.687531
lthumb 19.025549 10.167000
rfemur -13.007655 8.919780 44.589748
rtibia 37.951801
rfoot -28.478399 5.928960
rtoes -22.169849
lfemur -57.230553 7.500285 -26.626801
ltibia 73.595703
lfoot -22.875750 16.127850
ltoes -11.284665
378
root 14.063025 25.683901 25.250999 8.876610 3.341145 -5.214735
lowerback -8.698709 1.708005 0.707102
upperback -0.471848 2.101290 4.341375
thorax 4.299645 1.031841 4.254465
lowerneck -30.231600 -9.283770 -18.927750
upperneck 32.758350 -11.982285 18.835651
head 17.261099 -4.788345 8.222970
rclavicle -0.000000 -0.000000
rhumerus -45.851849 27.632851 -125.163452
rradius 66.825745
rwrist -35.007000
rhand -47.838448 -38.980499
rfingers 10.687531
rthumb -7.717140 -83.856895
lclavicle -0.000000 -0.000000
lhumerus -71.185196 -22.265400 143.844604
lradius 40.598400
lwrist 15.732150
lhand -19.796101 -34.174652
lfingers 10.687531
lthumb 19.354349 10.196985
rfemur -11.253570 8.538375 44.623199
rtibia 36.575100
rfoot -28.167301 5.934210
rtoes -24.187950
lfemur -57.712799 7.194585 -26.816849
ltibia 71.109154
lfoot -22.648048 15.843151
ltoes -15.121050
379
root 14.057085 25.662300 25.453199 8.501640 2.877255 -6.353086
lowerback -8.507535 1.923420 1.552275
upperback -0.410634 2.325570 4.722435
thorax 4.257885 1.152349 4.187685
lowerneck -29.952148 -9.323925 -18.921749
upperneck 32.716351 -12.068895 18.825001
head 17.203199 -4.837890 8.202900
rclavicle -0.000000 -0.000000
rhumerus -45.526352 27.766350 -125.199448
rradius 66.953094
rwrist -35.002499
rhand -47.894402 -39.295048
rfingers 10.687531
rthumb -7.771170 -84.170097
lclavicle -0.000000 -0.000000
lhumerus -71.467194 -20.595150 142.849945
lradius 40.259251
lwrist 13.840080
lhand -19.079700 -33.752701
lfingers 10.687531
lthumb 20.044950 10.574550
rfemur -9.459960 9.059700 46.177052
rtibia 35.382149
rfoot -28.522499 5.076600
rtoes -28.264050
lfemur -58.070251 7.200465 -25.520399
ltibia 68.685150
lfoot -22.311600 15.400351
ltoes -18.169199
380
root 14.090040 25.641151 25.618050 8.903025 2.668725 -6.280545
lowerback -8.634840 2.054400 1.668240
upperback -0.751256 2.500605 4.701030
thorax 3.974505 1.243556 4.110555
lowerneck -29.305649 -9.252015 -19.056450
upperneck 32.773502 -11.976450 18.718349
head 17.084850 -4.842000 8.207565
rclavicle -0.000000 -0.000000
rhumerus -45.302700 27.619200 -125.108551
rradius 66.799797
rwrist -34.731152
rhand -47.423100 -36.653400
rfingers 10.687531
rthumb -7.316130 -81.539101
lclavicle -0.000000 -0.000000
lhumerus -72.315300 -19.989750 142.948349
lradius 40.050449
lwrist 14.003010
lhand -19.093050 -33.030750
lfingers 10.687531
lthumb 20.032051 11.297235
rfemur -8.743845 8.556930 45.931801
rtibia 34.144348
rfoot -28.091400 6.118725
rtoes -21.408449
lfemur -59.133446 6.762450 -25.814548
ltibia 66.093002
lfoot -21.853951 15.351450
ltoes -22.131599
